<?xml version="1.0" encoding="utf-8"?>
<!-- Designed by Vexels.com - 2020 All Rights Reserved - https://vexels.com/terms-and-conditions/  -->
<svg version="1.1" id="Layer_1" xmlns="http://www.w3.org/2000/svg" xmlns:xlink="http://www.w3.org/1999/xlink" x="0px" y="0px"
	 viewBox="0 0 1200 1200" enable-background="new 0 0 1200 1200" xml:space="preserve">
<g>
	<g>
		<path fill="#202020" d="M1142.431,713.653c-0.001,6.408-1.679,12.886-4.612,17.928c-4.288,7.373-9.203,15.98-14.914,18.95
			c-11.204,5.827-18.59-8.595-19.445-24.013c-2.092-37.708-2.43-76.012-2.806-114.217c-0.185-18.759,0.003-37.949,2.221-56.709
			c0.121-1.021,0.303-2.036,0.538-3.045c3.621-15.565,16.626-22.066,24.02-12.444c1.161,1.511,2.025,3.213,2.418,5.218
			C1140.004,597.121,1142.439,651.976,1142.431,713.653z"/>
		<path fill="#202020" stroke="#000000" stroke-width="1.5819" stroke-miterlimit="10" d="M1149.812,806.876
			c-0.438,3.099-1.746,6.024-3.64,8.348c-6.6,8.097-12.829,9.064-19.482,9.571c-10.944,0.833-18.711-9.777-14.955-21.833
			c2.385-7.655,12.299-17.453,18.528-17.34c4.666,0.084,9.581,3.075,14.339,6.86c3.999,3.181,6.017,8.706,5.231,14.252
			L1149.812,806.876z"/>
	</g>
	<g>
		<path fill="#202020" d="M180.768,696.365c-1.111-3.404-5.974-3.537-7.155-0.195c-4.407,12.468-11.267,19.963-13.179,38.045
			c-0.728,6.886-1.552,13.866-2.579,20.766c-1.328,8.92-6.236,15.248-15.72,15.891c-9.546,0.647-15.93-4.912-17.937-13.778
			c-3.341-14.759-5.34-29.787-8.64-44.555c-1.769-7.916-4.254-15.689-7.13-25.071c-1.093-3.565-5.911-4.379-7.981-1.317
			c-2.016,2.983-3.616,5.454-4.781,8.115c-8.535,19.492-11.853,39.998-10.161,61.345c0.35,4.411,0.794,8.827,0.899,13.242
			c0.208,8.753-3.16,15.53-12.67,16.451c-8.841,0.857-15.052-4.733-15.94-12.69c-3.101-27.788-5.213-55.667-7.486-83.525
			c-0.185-2.268-1.415-7.454,2.846-9.965c4.41-0.315,6.999,10.955,10.215,15.989c3.394-6.713,6.318-13.648,10.258-19.959
			c3.868-6.194,8.128-12.394,13.356-17.457c11.622-11.256,29.316-10.002,39.252,3.063c6.78,8.916,11.483,19.378,17.473,29.706
			c3.511-5.023,6.782-10.523,10.852-15.372c12.792-15.242,31.061-16.078,42.961-0.021c20.281,27.369,33.76,57.85,37.016,91.866
			c0.241,2.512,0.191,5.058-0.096,7.557c-0.924,8.051-3.176,15.836-12.718,16.947c-9.651,1.123-14.189-5.854-16.605-13.701
			c-5.226-16.967-9.585-34.184-15.012-51.088C187.817,719.537,183.836,705.768,180.768,696.365z"/>
		<path fill="#202020" d="M1010.273,731.923c-14.382,2.356-27.658,6.461-40.941,6.257c-20.417-0.313-35.773-14.485-39.11-32.452
			c-4.431-23.853,2.995-40.278,23.072-49.223c9.382-4.18,19.035-8.852,29.077-10.379c29.098-4.426,52.784,20.796,47.936,49.238
			c-0.926,5.43-0.236,11.652,1.488,16.979c10.18,31.458,10.642,62.551-2.642,92.649c-14.768,33.459-48.578,47.678-84.407,36.68
			c-17.884-5.49-27.045-23.122-19.235-37.018c4.782-8.508,13.991-9.662,20.234-2.534c11.743,13.405,35.151,12.891,46.078-1.801
			C1007.21,779.63,1009.986,755.285,1010.273,731.923z M994.351,683.611c-2.844-4.527-8.336-6.924-13.691-6.59
			c-13.326,0.83-20.915,5.337-21.218,11.426c-0.51,10.268,4.206,15.419,14.33,15.653c10.971,0.254,22.952-8.469,21.771-17.436
			C995.404,685.605,994.96,684.581,994.351,683.611z"/>
		<g>
			<path fill="#202020" d="M336.635,570.826c-51.877,39.402-119.794-11.629-123.739-61.366
				c-4.067-51.27,44.522-110.673,96.224-114.634c11.31-0.867,22.016,0.377,28.837,10.901c4.399,6.788,1.41,12.141-6.318,11.227
				c-18.553-2.196-33.899,5.14-47.457,15.553c-22.11,16.981-33.575,40.903-37.575,67.664c-3.748,25.077,27.836,55.969,53.03,51.875
				c9.001-1.463,18.164-7.981,24.852-14.551c9.239-9.075,3.723-20.841-9.56-23.01c-2.951-0.482-6.68,0.526-8.819-0.926
				c-4.803-3.26-11.883-7.369-12.341-11.629c-0.48-4.46,4.572-11.796,9.154-13.908c26.912-12.407,51.088-1.91,58.53,26.409
				c4.736,18.023,6.459,36.877,8.168,55.456c0.845,9.19-2.92,18.233-13.989,19.368c-10.753,1.102-14.714-7.009-17.346-15.681
				C337.99,572.594,337.206,571.752,336.635,570.826z"/>
			<path fill="#202020" d="M821.345,547.647c-12.355,12.123-25.659,21.261-43.008,22.134c-40.77,2.052-70.632-42.463-53.911-81.407
				c11.277-26.264,26.964-41.173,61.46-45.563c5.969-1.361,13.037,1.622,19.722,2.623c1.167-19.125,2.025-38.5,3.668-57.796
				c0.773-9.078,2.069-18.358,5.069-26.856c0.186-0.527,0.441-1.03,0.752-1.512c4.569-7.094,16.22-5.683,19.688,2.121
				c0.303,0.683,0.506,1.374,0.58,2.076c2.367,22.687,3.261,45.495,4.771,68.256c1.996,30.093,9.672,101.091,9.538,106.422
				c-0.151,6.012-0.614,13.763-4.334,17.471c-5.762,5.743-13.176,1.747-18.962-3.228
				C824.972,551.179,823.673,549.848,821.345,547.647z M749.069,504.465c-0.139,18.56,11.222,33.358,26.535,34.565
				c14.106,1.111,29.613-11.988,29.132-28.529c-0.356-12.241,1.806-23.219-6.03-34.934c-1.331-1.99-9.343-6.235-12.145-6.361
				C765.766,468.274,749.222,484.091,749.069,504.465z"/>
			<path fill="#202020" d="M529.92,488.057c-2.676,30.486-12.285,53.772-33.193,71.177c-21.148,17.604-42.653,16.92-63.688-1.458
				c-25.929-22.655-39.399-50.389-34.02-84.628c2.118-13.482,8.891-24.613,21.963-31.153c3.163-1.583,5.818-4.375,8.271-7.005
				c30.97-33.207,77.57-23.938,92.761,18.988C526.286,466.05,527.881,478.996,529.92,488.057z M439.037,459.892
				c-11.181,5.949-17.128,18.682-13.978,30.934c3.942,15.326,12.697,29.21,26.939,40.844c11.687,9.547,18.86,9.329,28.522-2.109
				c13.322-15.769,18.426-33.956,13.802-54.728c-5.185-23.297-27.441-31.433-47.892-19.099
				C444.057,457.167,441.614,458.521,439.037,459.892z"/>
			<path fill="#202020" d="M686.363,472.737c1.2,5.377,1.324,10.906,0.455,16.31c-4.956,30.846-16.226,55.586-43.376,71.118
				c-23.189,13.267-44.599,10.423-63.207-9.021c-45.632-47.681-23.912-112.024,26.851-133.359
				c30.569-12.848,61.438,0.936,73.01,31.901C683.001,457.461,684.776,465.626,686.363,472.737z M655.058,488.108
				c1.062-5.504,0.919-11.19-0.29-16.703c-1.07-4.879-2.38-10.144-5.032-14.664c-3.087-5.26-9.949-10.433-15.929-11.702
				c-17.815-3.78-32.418,5.815-46.859,13.865c-2.756,1.536-4.139,6.839-4.593,10.612c-2.691,22.37,3.451,42.128,19.935,58.619
				c8.129,8.132,16.854,8.839,26.332,3.079C644.862,521.343,651.536,506.36,655.058,488.108z"/>
		</g>
		<path fill="#202020" d="M320.112,663.444c33.142,0.799,59.15,27.034,58.907,59.42c-0.254,33.843-26.228,60.424-58.318,59.68
			c-31.891-0.739-64.24-35.062-64.013-67.917C256.893,684.987,284.648,662.589,320.112,663.444z M312.763,692.381
			c-2.423,0.285-7.234,0.791-12.025,1.425c-15.577,2.063-21.359,9.971-14.39,23.885c5.116,10.215,12.989,20.017,21.883,27.352
			c11.684,9.635,26.67,5.696,34.605-6.789c6.153-9.681,7.201-19.976,1.589-30.317C338.233,696.529,327.505,692.844,312.763,692.381z
			"/>
		<path fill="#202020" d="M796.041,674.079c5.334-4.067,10.265-8.59,15.907-11.994c21.391-12.905,44.34-8.743,59.813,11.174
			c14.681,18.898,19.243,40.652,17.236,63.728c-0.968,11.128-7.716,19.242-15.409,18.605c-10.487-0.868-14.069-8.622-16.136-17.394
			c-3.127-13.272-5.321-26.831-9.629-39.742c-5.534-16.589-16.26-18.295-27.779-5.057c-10.262,11.794-12.796,26.038-11.03,41.236
			c0.933,8.028,2.925,16,3.281,24.027c0.42,9.485-4.183,16.317-14.166,18.123c-9.159,1.657-19.293-3.866-19.848-13.814
			c-1.548-27.77-2.041-55.674-0.863-83.405C777.909,668.055,785.16,666.871,796.041,674.079z"/>
		<path fill="#202020" d="M552.036,687.864c8.002-7.027,15.005-14.743,23.495-20.295c16.02-10.477,32.522-7.579,43.088,8.417
			c17.502,26.497,23.974,55.669,18.021,86.7c-1.379,7.188-5.291,13.69-13.892,13.32c-9.457-0.407-12.732-8.828-13.695-16.899
			c-1.993-16.699-3.452-33.456-5.338-50.195c-0.332-2.943-1.532-7.611-2.829-10.3c-0.201-0.417-0.405-0.833-0.611-1.248
			c-3.78-7.61-13.834-10.062-20.532-4.94c-1.179,0.901-2.277,1.873-3.258,2.949c-10.781,11.836-11.226,26.511-8.359,41.591
			c0.824,4.335,2.028,8.706,2.065,13.052c0.064,7.473-3.846,14.179-11.427,13.427c-5.458-0.541-14.096-5.642-15.065-9.962
			c-5.002-22.3-8.336-44.966-11.339-67.606c-0.148-1.113,0.092-2.269,0.552-3.45c1.935-4.965,8.535-6.08,12.759-2.635
			c0.911,0.744,1.802,1.509,2.658,2.31C550.116,683.774,551.071,686.308,552.036,687.864z"/>
		<path fill="#202020" d="M438.586,684.942c16.83-10.567,32.196-25.435,54.036-21.692c2.448,0.419,4.912,1.066,7.003,2.408
			c1.978,1.269,5.014,4.735,4.448,7.307c-0.104,0.474-0.422,0.87-0.755,1.224c-2.604,2.77-6.434,3.835-9.782,5.554
			c-3.791,1.946-7.457,4.119-10.975,6.501c-8.441,5.716-16.522,12.602-22.28,20.992c-6.059,8.836-8.986,18.096-5.92,29.084
			c2.373,8.502,4.102,17.271,5.009,26.013c1.126,10.844-4.607,18.232-13.624,19.307c-9.397,1.12-17.829-4.948-19.672-15.932
			c-2.923-17.427-4.67-35.021-7.08-52.525c-1.606-11.67-4.293-23.282-4.861-34.969c-0.085-1.754,0.532-3.529,1.451-5.313
			c2.452-4.761,8.608-6.155,13.005-2.884c1.332,0.991,2.575,2.057,3.644,3.271C435.275,676.743,436.785,681.492,438.586,684.942z"/>
		<path fill="#202020" d="M735.81,752.182c0.045,7.104-6.291,15.31-15.807,15.922c-9.195,0.592-17.742-5.859-19.089-16.803
			c-3.344-27.157-3.397-54.355,4.446-80.672c0.715-2.399,2.935-4.342,5.461-6.191c3.61-2.643,8.715-2.304,12.037,0.793
			c2.352,2.193,4.365,4.423,4.688,6.843C730.901,697.198,732.907,722.474,735.81,752.182z"/>
		<path fill="#202020" d="M727.393,634.22c-1.558,0.071-3.107-0.219-4.561-0.802c-2.865-1.15-6.956-2.719-10.067-5.394
			c-2.481-2.132-4.146-7.404-3.385-10.575c2.691-11.21,22.785-19.152,32.097-12.05"/>
	</g>
</g>
</svg>
