<svg width="774.3112548828125px" height="120.81007995605468px" xmlns="http://www.w3.org/2000/svg" viewBox="-137.15562744140624 14.59496002197266 774.3112548828125 120.81007995605468" style="background: rgba(0, 0, 0, 0);" preserveAspectRatio="xMidYMid"><defs><linearGradient id="editing-outline-gradient" x1="-0.41354545764260087" x2="1.4135454576426008" y1="0.09326335692419985" y2="0.9067366430758002"><stop offset="0" stop-color="#ee4208"></stop><stop offset="1" stop-color="#4139ff"></stop></linearGradient><filter id="editing-outline" x="-100%" y="-100%" width="300%" height="300%"><feMorphology in="SourceGraphic" operator="dilate" radius="1" result="outline"></feMorphology><feComposite operator="out" in="outline" in2="SourceAlpha"></feComposite></filter></defs><g filter="url(#editing-outline)"><g transform="translate(-26.483424097299576, 102.68000030517578)"><path d="M24.96-4.80L24.96-4.80L24.96-4.80Q24.96-9.28 26.75-18.24L26.75-18.24L17.28-18.24L13.76 0L0.38 0L8.51-42.24L22.02-42.24L18.30-23.36L27.78-23.36L31.30-42.24L44.80-42.24L44.80-42.24Q43.90-37.50 42.75-32.19L42.75-32.19L40.58-21.76L40.58-21.76Q38.14-9.60 38.14-4.29L38.14-4.29L38.14-4.29Q38.14-2.11 38.85-0.90L38.85-0.90L38.85-0.90Q35.65 1.28 31.90 1.28L31.90 1.28L31.90 1.28Q28.16 1.28 26.56-0.51L26.56-0.51L26.56-0.51Q24.96-2.30 24.96-4.80ZM61.70-3.52L61.70-3.52L61.70-3.52Q59.71 1.28 53.38 1.28L53.38 1.28L53.38 1.28Q50.11 1.28 48.06-0.96L48.06-0.96L48.06-0.96Q46.34-2.94 46.34-4.93L46.34-4.93L46.34-4.93Q46.34-10.11 48.70-20.22L48.70-20.22L51.07-32.64L64.06-33.92L60.16-13.70L60.16-13.70Q59.07-8.96 59.07-7.30L59.07-7.30L59.07-7.30Q59.07-3.65 61.70-3.52ZM52.22-41.54L52.22-41.54L52.22-41.54Q52.22-44.03 54.30-45.38L54.30-45.38L54.30-45.38Q56.38-46.72 59.39-46.72L59.39-46.72L59.39-46.72Q62.40-46.72 64.22-45.38L64.22-45.38L64.22-45.38Q66.05-44.03 66.05-41.54L66.05-41.54L66.05-41.54Q66.05-39.04 64.03-37.76L64.03-37.76L64.03-37.76Q62.02-36.48 59.01-36.48L59.01-36.48L59.01-36.48Q56-36.48 54.11-37.76L54.11-37.76L54.11-37.76Q52.22-39.04 52.22-41.54ZM61.50 8.26L61.50 8.26L61.50 8.26Q66.43 2.94 66.43-3.71L66.43-3.71L66.43-3.71Q66.43-5.76 65.73-7.68L65.73-7.68L65.73-7.68Q66.50-8.19 68.03-8.54L68.03-8.54L68.03-8.54Q69.57-8.90 70.72-8.90L70.72-8.90L70.72-8.90Q73.54-8.90 75.20-7.39L75.20-7.39L75.20-7.39Q76.86-5.89 76.86-3.26L76.86-3.26L76.86-3.26Q76.86-0.64 75.84 1.47L75.84 1.47L75.84 1.47Q74.82 3.58 73.09 5.18L73.09 5.18L73.09 5.18Q69.38 8.64 64.26 8.64L64.26 8.64L64.26 8.64Q63.23 8.64 61.50 8.26ZM143.81-10.69L143.81-10.69Q139.58-4.86 135.52-1.79L135.52-1.79L135.52-1.79Q131.46 1.28 127.26 1.28L127.26 1.28L127.26 1.28Q123.07 1.28 121.60 0.45L121.60 0.45L121.60-13.63L121.60-13.63Q117.95-3.90 111.42-0.13L111.42-0.13L111.42-0.13Q109.06 1.28 106.82 1.28L106.82 1.28L106.82 1.28Q102.53 1.28 100.67 0.45L100.67 0.45L100.67 0.45Q100.22-14.21 99.84-18.27L99.84-18.27L99.84-18.27Q99.46-22.34 99.14-24.83L99.14-24.83L99.14-24.83Q98.50-29.82 96.32-31.87L96.32-31.87L96.32-31.87Q99.07-33.92 102.91-33.92L102.91-33.92L102.91-33.92Q110.34-33.92 111.36-24.70L111.36-24.70L111.36-24.70Q111.62-22.53 111.62-20.22L111.62-20.22L111.62-20.22Q111.62-16.77 110.85-4.74L110.85-4.74L110.85-4.74Q112.38-5.44 114.02-7.97L114.02-7.97L114.02-7.97Q115.65-10.50 116.99-13.95L116.99-13.95L116.99-13.95Q120-21.95 120-28.86L120-28.86L120-28.86Q120-29.95 119.71-31.10L119.71-31.10L119.71-31.10Q119.42-32.26 119.10-32.58L119.10-32.58L119.10-32.58Q121.34-33.92 124.77-33.92L124.77-33.92L124.77-33.92Q128.19-33.92 129.82-31.58L129.82-31.58L129.82-31.58Q131.46-29.25 131.90-24.96L131.90-24.96L131.90-24.96Q132.42-19.52 132.42-16.26L132.42-16.26L132.42-16.26Q132.42-11.71 131.97-4.99L131.97-4.99L131.97-4.99Q135.17-7.30 137.79-14.85L137.79-14.85L137.79-14.85Q140.42-22.40 140.42-27.78L140.42-27.78L140.42-27.78Q140.42-30.14 140.03-31.55L140.03-31.55L140.03-31.55Q142.14-33.92 145.79-33.92L145.79-33.92L145.79-33.92Q148.03-33.92 149.66-32.70L149.66-32.70L149.66-32.70Q151.30-31.49 151.30-29.22L151.30-29.22L151.30-29.22Q151.30-26.94 150.62-24.51L150.62-24.51L150.62-24.51Q149.95-22.08 148.86-19.58L148.86-19.58L148.86-19.58Q146.75-14.59 143.81-10.69L143.81-10.69ZM178.94-10.82L178.94-10.82L178.94-10.82Q180.54-9.73 180.54-7.33L180.54-7.33L180.54-7.33Q180.54-4.93 179.33-3.39L179.33-3.39L179.33-3.39Q178.11-1.86 176.13-0.83L176.13-0.83L176.13-0.83Q172.03 1.28 167.62 1.28L167.62 1.28L167.62 1.28Q163.20 1.28 160.61 0.32L160.61 0.32L160.61 0.32Q158.02-0.64 156.29-2.43L156.29-2.43L156.29-2.43Q152.90-5.82 152.90-12.03L152.90-12.03L152.90-12.03Q152.90-21.70 158.14-27.58L158.14-27.58L158.14-27.58Q163.78-33.92 173.57-33.92L173.57-33.92L173.57-33.92Q179.65-33.92 182.66-31.36L182.66-31.36L182.66-31.36Q184.90-29.44 184.90-26.30L184.90-26.30L184.90-26.30Q184.90-15.04 165.44-15.04L165.44-15.04L165.44-15.04Q165.18-13.38 165.18-11.97L165.18-11.97L165.18-11.97Q165.18-9.02 166.50-7.90L166.50-7.90L166.50-7.90Q167.81-6.78 170.24-6.78L170.24-6.78L170.24-6.78Q172.67-6.78 175.26-7.90L175.26-7.90L175.26-7.90Q177.86-9.02 178.94-10.82ZM165.89-17.79L165.89-17.79L165.89-17.79Q170.43-17.79 173.06-20.61L173.06-20.61L173.06-20.61Q175.68-23.30 175.68-27.58L175.68-27.58L175.68-27.58Q175.68-29.06 175.14-29.86L175.14-29.86L175.14-29.86Q174.59-30.66 173.50-30.66L173.50-30.66L173.50-30.66Q172.42-30.66 171.49-30.24L171.49-30.24L171.49-30.24Q170.56-29.82 169.60-28.42L169.60-28.42L169.60-28.42Q167.23-25.22 165.89-17.79ZM202.37-3.52L202.37-3.52L202.37-3.52Q200.38 1.28 194.05 1.28L194.05 1.28L194.05 1.28Q190.85 1.28 188.80-0.96L188.80-0.96L188.80-0.96Q187.14-2.82 187.14-4.93L187.14-4.93L187.14-4.93Q187.14-9.73 189.38-20.22L189.38-20.22L194.05-44.80L207.04-46.08L200.83-13.70L200.83-13.70Q199.74-8.96 199.74-7.30L199.74-7.30L199.74-7.30Q199.74-3.65 202.37-3.52ZM239.23-26.62L239.23-26.62L239.23-26.62Q239.23-23.94 236.99-22.27L236.99-22.27L236.99-22.27Q234.75-20.61 231.10-20.61L231.10-20.61L231.10-20.61Q229.57-20.61 228.67-21.06L228.67-21.06L228.67-21.06Q229.38-22.72 229.60-24.80L229.60-24.80L229.60-24.80Q229.82-26.88 229.82-27.46L229.82-27.46L229.82-27.46Q229.82-30.14 227.97-30.14L227.97-30.14L227.97-30.14Q226.69-30.14 225.25-28.54L225.25-28.54L225.25-28.54Q223.81-26.94 222.59-24.45L222.59-24.45L222.59-24.45Q219.90-18.69 219.90-12.86L219.90-12.86L219.90-12.86Q219.90-9.66 221.12-8.22L221.12-8.22L221.12-8.22Q222.34-6.78 225.02-6.78L225.02-6.78L225.02-6.78Q228.74-6.78 231.68-9.86L231.68-9.86L231.68-9.86Q232.51-10.82 232.96-11.90L232.96-11.90L232.96-11.90Q235.39-10.62 235.39-7.10L235.39-7.10L235.39-7.10Q235.39-3.52 231.42-1.15L231.42-1.15L231.42-1.15Q227.33 1.28 220.80 1.28L220.80 1.28L220.80 1.28Q207.81 1.28 207.81-12.48L207.81-12.48L207.81-12.48Q207.81-22.53 213.50-28.29L213.50-28.29L213.50-28.29Q219.01-33.92 229.12-33.92L229.12-33.92L229.12-33.92Q239.23-33.92 239.23-26.62ZM254.91 1.28L254.91 1.28L254.91 1.28Q240.83 1.28 240.83-11.97L240.83-11.97L240.83-11.97Q240.83-21.38 246.02-27.46L246.02-27.46L246.02-27.46Q251.52-33.92 261.06-33.92L261.06-33.92L261.06-33.92Q267.97-33.92 271.49-30.72L271.49-30.72L271.49-30.72Q275.01-27.52 275.01-20.80L275.01-20.80L275.01-20.80Q275.01-10.56 269.50-4.61L269.50-4.61L269.50-4.61Q264.13 1.28 254.91 1.28ZM256.58-26.56L256.58-26.56L256.58-26.56Q255.81-24.83 255.20-22.24L255.20-22.24L255.20-22.24Q254.59-19.65 253.82-15.55L253.82-15.55L253.82-15.55Q253.06-11.46 253.06-6.40L253.06-6.40L253.06-6.40Q253.06-4.74 253.60-3.65L253.60-3.65L253.60-3.65Q254.14-2.56 255.62-2.56L255.62-2.56L255.62-2.56Q257.09-2.56 258.02-3.26L258.02-3.26L258.02-3.26Q258.94-3.97 259.65-5.63L259.65-5.63L259.65-5.63Q260.93-8.58 261.95-14.05L261.95-14.05L261.95-14.05Q262.98-19.52 263.07-21.89L263.07-21.89L263.07-21.89Q263.17-24.26 263.17-26.02L263.17-26.02L263.17-26.02Q263.17-27.78 262.66-28.93L262.66-28.93L262.66-28.93Q262.14-30.08 260.70-30.08L260.70-30.08L260.70-30.08Q259.26-30.08 258.30-29.18L258.30-29.18L258.30-29.18Q257.34-28.29 256.58-26.56ZM324.86 1.28L324.86 1.28L324.86 1.28Q317.12 1.28 317.12-4.74L317.12-4.74L317.12-4.74Q317.12-7.36 318.24-12.45L318.24-12.45L318.24-12.45Q319.36-17.54 319.74-19.58L319.74-19.58L319.74-19.58Q320.64-24.26 320.64-25.73L320.64-25.73L320.64-25.73Q320.64-28.99 318.21-28.99L318.21-28.99L318.21-28.99Q316.61-28.99 315.07-26.78L315.07-26.78L315.07-26.78Q313.54-24.58 312.83-20.16L312.83-20.16L308.86 0L296.38 1.28L299.84-16.13L299.84-16.13Q300.42-19.01 300.93-22.27L300.93-22.27L300.93-22.27Q301.44-25.54 301.44-26.05L301.44-26.05L301.44-26.05Q301.44-28.99 299.26-28.99L299.26-28.99L299.26-28.99Q297.79-28.99 296.19-26.82L296.19-26.82L296.19-26.82Q294.59-24.64 293.70-20.16L293.70-20.16L289.79 0L277.18 1.28L283.90-32.64L294.34-33.92L293.25-27.46L293.25-27.46Q294.91-30.91 297.98-32.42L297.98-32.42L297.98-32.42Q301.06-33.92 305.86-33.92L305.86-33.92L305.86-33.92Q308.61-33.92 310.40-32.58L310.40-32.58L310.40-32.58Q312.19-31.23 312.77-29.06L312.77-29.06L312.77-29.06Q313.86-31.30 316.64-32.61L316.64-32.61L316.64-32.61Q319.42-33.92 322.85-33.92L322.85-33.92L322.85-33.92Q326.27-33.92 327.97-33.18L327.97-33.18L327.97-33.18Q329.66-32.45 330.69-31.23L330.69-31.23L330.69-31.23Q332.42-28.99 332.42-24.90L332.42-24.90L332.42-24.90Q332.42-20.86 330.69-12.48L330.69-12.48L330.69-12.48Q329.79-8.38 329.79-6.88L329.79-6.88L329.79-6.88Q329.79-5.38 330.66-4.48L330.66-4.48L330.66-4.48Q331.52-3.58 332.80-3.46L332.80-3.46L332.80-3.46Q332.16-1.28 329.95 0L329.95 0L329.95 0Q327.74 1.28 324.86 1.28ZM363.65-10.82L363.65-10.82L363.65-10.82Q365.25-9.73 365.25-7.33L365.25-7.33L365.25-7.33Q365.25-4.93 364.03-3.39L364.03-3.39L364.03-3.39Q362.82-1.86 360.83-0.83L360.83-0.83L360.83-0.83Q356.74 1.28 352.32 1.28L352.32 1.28L352.32 1.28Q347.90 1.28 345.31 0.32L345.31 0.32L345.31 0.32Q342.72-0.64 340.99-2.43L340.99-2.43L340.99-2.43Q337.60-5.82 337.60-12.03L337.60-12.03L337.60-12.03Q337.60-21.70 342.85-27.58L342.85-27.58L342.85-27.58Q348.48-33.92 358.27-33.92L358.27-33.92L358.27-33.92Q364.35-33.92 367.36-31.36L367.36-31.36L367.36-31.36Q369.60-29.44 369.60-26.30L369.60-26.30L369.60-26.30Q369.60-15.04 350.14-15.04L350.14-15.04L350.14-15.04Q349.89-13.38 349.89-11.97L349.89-11.97L349.89-11.97Q349.89-9.02 351.20-7.90L351.20-7.90L351.20-7.90Q352.51-6.78 354.94-6.78L354.94-6.78L354.94-6.78Q357.38-6.78 359.97-7.90L359.97-7.90L359.97-7.90Q362.56-9.02 363.65-10.82ZM350.59-17.79L350.59-17.79L350.59-17.79Q355.14-17.79 357.76-20.61L357.76-20.61L357.76-20.61Q360.38-23.30 360.38-27.58L360.38-27.58L360.38-27.58Q360.38-29.06 359.84-29.86L359.84-29.86L359.84-29.86Q359.30-30.66 358.21-30.66L358.21-30.66L358.21-30.66Q357.12-30.66 356.19-30.24L356.19-30.24L356.19-30.24Q355.26-29.82 354.30-28.42L354.30-28.42L354.30-28.42Q351.94-25.22 350.59-17.79ZM384.13-3.07L384.13-3.07L392.06-44.80L405.06-46.08L403.07-36.29L403.07-36.29Q402.37-33.28 401.47-31.17L401.47-31.17L401.47-31.17Q402.88-32.96 405.95-33.66L405.95-33.66L405.95-33.66Q406.85-33.92 407.94-33.92L407.94-33.92L407.94-33.92Q413.89-33.92 417.15-30.30L417.15-30.30L417.15-30.30Q420.42-26.69 420.42-19.71L420.42-19.71L420.42-19.71Q420.42-10.62 415.23-4.93L415.23-4.93L415.23-4.93Q409.66 1.28 399.55 1.28L399.55 1.28L399.55 1.28Q392.58 1.28 387.33-1.02L387.33-1.02L387.33-1.02Q385.47-1.86 384.13-3.07ZM400.38-22.40L396.99-3.65L396.99-3.65Q398.34-2.50 400.00-2.50L400.00-2.50L400.00-2.50Q401.66-2.50 402.62-3.14L402.62-3.14L402.62-3.14Q403.58-3.78 404.29-5.06L404.29-5.06L404.29-5.06Q406.21-8.51 407.74-19.07L407.74-19.07L407.74-19.07Q408.19-22.08 408.19-25.09L408.19-25.09L408.19-25.09Q408.19-28.10 407.52-29.06L407.52-29.06L407.52-29.06Q406.85-30.02 405.57-30.02L405.57-30.02L405.57-30.02Q401.66-30.02 400.38-22.40L400.38-22.40ZM427.04-1.92L427.04-1.92L427.04-1.92Q425.54-3.58 424.86-6.21L424.86-6.21L424.86-6.21Q424.19-8.83 424.19-13.12L424.19-13.12L424.19-13.12Q424.19-17.41 425.66-21.31L425.66-21.31L425.66-21.31Q427.14-25.22 429.82-28.03L429.82-28.03L429.82-28.03Q435.33-33.92 444.42-33.92L444.42-33.92L444.42-33.92Q447.68-33.92 450.05-32.83L450.05-32.83L460.99-33.92L456.26-8.96L456.26-8.96Q456.06-8.19 456.06-6.78L456.06-6.78L456.06-6.78Q456.06-5.38 456.93-4.48L456.93-4.48L456.93-4.48Q457.79-3.58 459.07-3.46L459.07-3.46L459.07-3.46Q458.43-1.28 456.10 0L456.10 0L456.10 0Q453.76 1.28 451.14 1.28L451.14 1.28L451.14 1.28Q448.51 1.28 446.75 0.29L446.75 0.29L446.75 0.29Q444.99-0.70 444.48-2.37L444.48-2.37L444.48-2.37Q443.46-0.77 441.28 0.26L441.28 0.26L441.28 0.26Q439.10 1.28 436.19 1.28L436.19 1.28L436.19 1.28Q433.28 1.28 430.91 0.51L430.91 0.51L430.91 0.51Q428.54-0.26 427.04-1.92ZM440.54-27.90L440.54-27.90L440.54-27.90Q439.81-26.75 439.17-24.80L439.17-24.80L439.17-24.80Q438.53-22.85 437.47-17.63L437.47-17.63L437.47-17.63Q436.42-12.42 436.42-8.70L436.42-8.70L436.42-8.70Q436.42-4.99 436.99-3.90L436.99-3.90L436.99-3.90Q437.57-2.82 438.59-2.82L438.59-2.82L438.59-2.82Q440.64-2.82 442.14-4.77L442.14-4.77L442.14-4.77Q443.65-6.72 444.22-10.18L444.22-10.18L447.62-28.93L447.62-28.93Q446.27-30.08 444.70-30.08L444.70-30.08L444.70-30.08Q443.14-30.08 442.21-29.57L442.21-29.57L442.21-29.57Q441.28-29.06 440.54-27.90ZM495.62-26.62L495.62-26.62L495.62-26.62Q495.62-23.94 493.38-22.27L493.38-22.27L493.38-22.27Q491.14-20.61 487.49-20.61L487.49-20.61L487.49-20.61Q485.95-20.61 485.06-21.06L485.06-21.06L485.06-21.06Q485.76-22.72 485.98-24.80L485.98-24.80L485.98-24.80Q486.21-26.88 486.21-27.46L486.21-27.46L486.21-27.46Q486.21-30.14 484.35-30.14L484.35-30.14L484.35-30.14Q483.07-30.14 481.63-28.54L481.63-28.54L481.63-28.54Q480.19-26.94 478.98-24.45L478.98-24.45L478.98-24.45Q476.29-18.69 476.29-12.86L476.29-12.86L476.29-12.86Q476.29-9.66 477.50-8.22L477.50-8.22L477.50-8.22Q478.72-6.78 481.41-6.78L481.41-6.78L481.41-6.78Q485.12-6.78 488.06-9.86L488.06-9.86L488.06-9.86Q488.90-10.82 489.34-11.90L489.34-11.90L489.34-11.90Q491.78-10.62 491.78-7.10L491.78-7.10L491.78-7.10Q491.78-3.52 487.81-1.15L487.81-1.15L487.81-1.15Q483.71 1.28 477.18 1.28L477.18 1.28L477.18 1.28Q464.19 1.28 464.19-12.48L464.19-12.48L464.19-12.48Q464.19-22.53 469.89-28.29L469.89-28.29L469.89-28.29Q475.39-33.92 485.50-33.92L485.50-33.92L485.50-33.92Q495.62-33.92 495.62-26.62ZM513.86-30.34L513.86-30.34L513.86-30.34Q517.31-33.92 524.61-33.92L524.61-33.92L524.61-33.92Q528.64-33.92 530.85-31.78L530.85-31.78L530.85-31.78Q533.06-29.63 533.06-25.70L533.06-25.70L533.06-25.70Q533.06-21.76 530.85-18.98L530.85-18.98L530.85-18.98Q528.64-16.19 524.54-15.04L524.54-15.04L524.54-15.04Q524.86-13.76 525.31-12.42L525.31-12.42L526.21-9.86L526.21-9.86Q527.42-6.59 528.38-5.44L528.38-5.44L528.38-5.44Q529.34-4.29 530.62-3.90L530.62-3.90L530.62-3.90Q529.92-1.28 527.36 0.13L527.36 0.13L527.36 0.13Q525.31 1.28 522.50 1.28L522.50 1.28L522.50 1.28Q514.24 1.28 513.15-11.46L513.15-11.46L513.15-11.46Q512.96-13.25 512.96-15.04L512.96-15.04L512.96-15.04Q516.16-15.94 518.40-18.94L518.40-18.94L518.40-18.94Q520.64-21.95 520.64-25.47L520.64-25.47L520.64-25.47Q520.64-28.99 518.14-28.99L518.14-28.99L518.14-28.99Q516.35-28.99 514.94-27.01L514.94-27.01L514.94-27.01Q513.54-25.02 512.90-21.63L512.90-21.63L508.67 0L495.74 1.28L504.70-44.80L517.57-46.08L516.10-38.46L516.10-38.46Q515.14-33.09 513.86-30.34ZM534.27-3.78L534.27-3.78L534.27-3.78Q534.27-6.21 536.10-7.52L536.10-7.52L536.10-7.52Q537.92-8.83 540.61-8.83L540.61-8.83L540.61-8.83Q543.30-8.83 544.99-7.52L544.99-7.52L544.99-7.52Q546.69-6.21 546.69-3.78L546.69-3.78L546.69-3.78Q546.69-1.34 544.80 0L544.80 0L544.80 0Q542.91 1.34 540.22 1.34L540.22 1.34L540.22 1.34Q537.54 1.34 535.90 0L535.90 0L535.90 0Q534.27-1.34 534.27-3.78ZM537.73-15.81L537.73-15.81L537.73-15.81Q537.73-16.26 537.86-16.90L537.86-16.90L542.85-42.62L542.85-42.62Q545.22-43.52 548.03-43.52L548.03-43.52L548.03-43.52Q550.85-43.52 552.32-41.73L552.32-41.73L552.32-41.73Q553.79-39.94 553.79-37.28L553.79-37.28L553.79-37.28Q553.79-34.62 552.77-31.65L552.77-31.65L552.77-31.65Q551.74-28.67 550.50-25.66L550.50-25.66L550.50-25.66Q549.25-22.66 548.19-19.55L548.19-19.55L548.19-19.55Q547.14-16.45 547.07-13.18L547.07-13.18L547.07-13.18Q545.60-11.52 543.04-11.52L543.04-11.52L543.04-11.52Q540.48-11.52 539.10-12.70L539.10-12.70L539.10-12.70Q537.73-13.89 537.73-15.81Z" fill="url(#editing-outline-gradient)"></path></g></g><style>text {
  font-size: 64px;
  font-family: Arial Black;
  dominant-baseline: central;
  text-anchor: middle;
}</style></svg>