<svg width="645.7061767578125px" height="120.81007995605468px" xmlns="http://www.w3.org/2000/svg" viewBox="-72.85308837890625 14.59496002197266 645.7061767578125 120.81007995605468" style="background: rgba(0, 0, 0, 0);" preserveAspectRatio="xMidYMid"><defs><linearGradient id="editing-outline-gradient" x1="-0.41354545764260087" x2="1.4135454576426008" y1="0.09326335692419985" y2="0.9067366430758002"><stop offset="0" stop-color="#ee4208"></stop><stop offset="1" stop-color="#4139ff"></stop></linearGradient><filter id="editing-outline" x="-100%" y="-100%" width="300%" height="300%"><feMorphology in="SourceGraphic" operator="dilate" radius="1" result="outline"></feMorphology><feComposite operator="out" in="outline" in2="SourceAlpha"></feComposite></filter></defs><g filter="url(#editing-outline)"><g transform="translate(20.01156187057495, 104.76000022888184)"><path d="M27.01-20.61L39.94-21.76L39.94-21.76Q35.33-11.65 35.33 0.06L35.33 0.06L35.33 0.06Q33.60 1.28 31.07 1.28L31.07 1.28L31.07 1.28Q28.54 1.28 26.94 0.10L26.94 0.10L26.94 0.10Q25.34-1.09 25.02-2.30L25.02-2.30L25.02-2.30Q23.42-0.64 20.83 0.32L20.83 0.32L20.83 0.32Q18.24 1.28 15.49 1.28L15.49 1.28L15.49 1.28Q12.74 1.28 10.34 0.38L10.34 0.38L10.34 0.38Q7.94-0.51 6.08-2.50L6.08-2.50L6.08-2.50Q1.98-6.85 1.98-15.10L1.98-15.10L1.98-15.10Q1.98-27.90 8.83-35.58L8.83-35.58L8.83-35.58Q15.87-43.52 28.35-43.52L28.35-43.52L28.35-43.52Q36.99-43.52 40.06-39.04L40.06-39.04L40.06-39.04Q41.02-37.63 41.02-35.94L41.02-35.94L41.02-35.94Q41.02-34.24 40.29-32.80L40.29-32.80L40.29-32.80Q39.55-31.36 38.40-30.21L38.40-30.21L38.40-30.21Q35.65-27.65 32.26-27.65L32.26-27.65L32.26-27.65Q30.91-27.65 29.63-28.10L29.63-28.10L29.63-28.10Q29.89-30.02 29.89-32.26L29.89-32.26L29.89-32.26Q29.89-34.50 29.73-35.52L29.73-35.52L29.73-35.52Q29.57-36.54 29.18-37.38L29.18-37.38L29.18-37.38Q28.35-39.10 26.53-39.10L26.53-39.10L26.53-39.10Q24.70-39.10 22.69-37.15L22.69-37.15L22.69-37.15Q20.67-35.20 19.07-32L19.07-32L19.07-32Q15.55-24.83 15.55-16.19L15.55-16.19L15.55-16.19Q15.55-12.22 17.09-9.41L17.09-9.41L17.09-9.41Q18.75-6.34 21.70-6.34L21.70-6.34L21.70-6.34Q22.72-6.34 23.65-6.85L23.65-6.85L23.65-6.85Q24.58-7.36 24.96-7.74L24.96-7.74L27.01-20.61ZM57.02 1.28L57.02 1.28L57.02 1.28Q42.94 1.28 42.94-11.97L42.94-11.97L42.94-11.97Q42.94-21.38 48.13-27.46L48.13-27.46L48.13-27.46Q53.63-33.92 63.17-33.92L63.17-33.92L63.17-33.92Q70.08-33.92 73.60-30.72L73.60-30.72L73.60-30.72Q77.12-27.52 77.12-20.80L77.12-20.80L77.12-20.80Q77.12-10.56 71.62-4.61L71.62-4.61L71.62-4.61Q66.24 1.28 57.02 1.28ZM58.69-26.56L58.69-26.56L58.69-26.56Q57.92-24.83 57.31-22.24L57.31-22.24L57.31-22.24Q56.70-19.65 55.94-15.55L55.94-15.55L55.94-15.55Q55.17-11.46 55.17-6.40L55.17-6.40L55.17-6.40Q55.17-4.74 55.71-3.65L55.71-3.65L55.71-3.65Q56.26-2.56 57.73-2.56L57.73-2.56L57.73-2.56Q59.20-2.56 60.13-3.26L60.13-3.26L60.13-3.26Q61.06-3.97 61.76-5.63L61.76-5.63L61.76-5.63Q63.04-8.58 64.06-14.05L64.06-14.05L64.06-14.05Q65.09-19.52 65.18-21.89L65.18-21.89L65.18-21.89Q65.28-24.26 65.28-26.02L65.28-26.02L65.28-26.02Q65.28-27.78 64.77-28.93L64.77-28.93L64.77-28.93Q64.26-30.08 62.82-30.08L62.82-30.08L62.82-30.08Q61.38-30.08 60.42-29.18L60.42-29.18L60.42-29.18Q59.46-28.29 58.69-26.56ZM94.85 1.28L94.85 1.28L94.85 1.28Q80.77 1.28 80.77-11.97L80.77-11.97L80.77-11.97Q80.77-21.38 85.95-27.46L85.95-27.46L85.95-27.46Q91.46-33.92 100.99-33.92L100.99-33.92L100.99-33.92Q107.90-33.92 111.42-30.72L111.42-30.72L111.42-30.72Q114.94-27.52 114.94-20.80L114.94-20.80L114.94-20.80Q114.94-10.56 109.44-4.61L109.44-4.61L109.44-4.61Q104.06 1.28 94.85 1.28ZM96.51-26.56L96.51-26.56L96.51-26.56Q95.74-24.83 95.14-22.24L95.14-22.24L95.14-22.24Q94.53-19.65 93.76-15.55L93.76-15.55L93.76-15.55Q92.99-11.46 92.99-6.40L92.99-6.40L92.99-6.40Q92.99-4.74 93.54-3.65L93.54-3.65L93.54-3.65Q94.08-2.56 95.55-2.56L95.55-2.56L95.55-2.56Q97.02-2.56 97.95-3.26L97.95-3.26L97.95-3.26Q98.88-3.97 99.58-5.63L99.58-5.63L99.58-5.63Q100.86-8.58 101.89-14.05L101.89-14.05L101.89-14.05Q102.91-19.52 103.01-21.89L103.01-21.89L103.01-21.89Q103.10-24.26 103.10-26.02L103.10-26.02L103.10-26.02Q103.10-27.78 102.59-28.93L102.59-28.93L102.59-28.93Q102.08-30.08 100.64-30.08L100.64-30.08L100.64-30.08Q99.20-30.08 98.24-29.18L98.24-29.18L98.24-29.18Q97.28-28.29 96.51-26.56ZM138.88-33.92L138.88-33.92L138.88-33.92Q141.18-33.92 142.98-33.41L142.98-33.41L142.98-33.41Q143.04-33.66 143.17-34.37L143.17-34.37L143.49-36.35L143.49-36.35Q143.74-37.63 144.13-39.74L144.13-39.74L145.15-44.80L157.89-46.08L150.78-8.96L150.78-8.96Q150.72-8.58 150.72-7.94L150.72-7.94L150.72-6.91L150.72-6.91Q150.72-5.50 151.42-4.45L151.42-4.45L151.42-4.45Q152.13-3.39 153.28-3.39L153.28-3.39L153.28-3.39Q152-0.38 148.10 0.90L148.10 0.90L148.10 0.90Q146.75 1.28 144.86 1.28L144.86 1.28L144.86 1.28Q142.98 1.28 141.25 0.29L141.25 0.29L141.25 0.29Q139.52-0.70 139.01-2.37L139.01-2.37L139.01-2.37Q137.98-0.70 135.94 0.29L135.94 0.29L135.94 0.29Q133.89 1.28 130.91 1.28L130.91 1.28L130.91 1.28Q127.94 1.28 125.47 0.51L125.47 0.51L125.47 0.51Q123.01-0.26 121.47-1.92L121.47-1.92L121.47-1.92Q118.66-5.18 118.66-12.61L118.66-12.61L118.66-12.61Q118.66-22.21 124.29-28.03L124.29-28.03L124.29-28.03Q129.92-33.92 138.88-33.92ZM138.43-30.08L138.43-30.08L138.43-30.08Q136.06-30.08 134.78-27.52L134.78-27.52L134.78-27.52Q133.50-24.96 132.19-18.62L132.19-18.62L132.19-18.62Q130.88-12.29 130.88-6.59L130.88-6.59L130.88-6.59Q130.88-2.69 133.18-2.69L133.18-2.69L133.18-2.69Q135.23-2.69 136.67-4.74L136.67-4.74L136.67-4.74Q138.11-6.78 138.69-10.18L138.69-10.18L142.14-28.93L142.14-28.93Q140.80-30.08 138.43-30.08ZM217.98 1.28L217.98 1.28L217.98 1.28Q210.24 1.28 210.24-4.74L210.24-4.74L210.24-4.74Q210.24-7.36 211.36-12.45L211.36-12.45L211.36-12.45Q212.48-17.54 212.86-19.58L212.86-19.58L212.86-19.58Q213.76-24.26 213.76-25.73L213.76-25.73L213.76-25.73Q213.76-28.99 211.33-28.99L211.33-28.99L211.33-28.99Q209.73-28.99 208.19-26.78L208.19-26.78L208.19-26.78Q206.66-24.58 205.95-20.16L205.95-20.16L201.98 0L189.50 1.28L192.96-16.13L192.96-16.13Q193.54-19.01 194.05-22.27L194.05-22.27L194.05-22.27Q194.56-25.54 194.56-26.05L194.56-26.05L194.56-26.05Q194.56-28.99 192.38-28.99L192.38-28.99L192.38-28.99Q190.91-28.99 189.31-26.82L189.31-26.82L189.31-26.82Q187.71-24.64 186.82-20.16L186.82-20.16L182.91 0L170.30 1.28L177.02-32.64L187.46-33.92L186.37-27.46L186.37-27.46Q188.03-30.91 191.10-32.42L191.10-32.42L191.10-32.42Q194.18-33.92 198.98-33.92L198.98-33.92L198.98-33.92Q201.73-33.92 203.52-32.58L203.52-32.58L203.52-32.58Q205.31-31.23 205.89-29.06L205.89-29.06L205.89-29.06Q206.98-31.30 209.76-32.61L209.76-32.61L209.76-32.61Q212.54-33.92 215.97-33.92L215.97-33.92L215.97-33.92Q219.39-33.92 221.09-33.18L221.09-33.18L221.09-33.18Q222.78-32.45 223.81-31.23L223.81-31.23L223.81-31.23Q225.54-28.99 225.54-24.90L225.54-24.90L225.54-24.90Q225.54-20.86 223.81-12.48L223.81-12.48L223.81-12.48Q222.91-8.38 222.91-6.88L222.91-6.88L222.91-6.88Q222.91-5.38 223.78-4.48L223.78-4.48L223.78-4.48Q224.64-3.58 225.92-3.46L225.92-3.46L225.92-3.46Q225.28-1.28 223.07 0L223.07 0L223.07 0Q220.86 1.28 217.98 1.28ZM244.80 1.28L244.80 1.28L244.80 1.28Q230.72 1.28 230.72-11.97L230.72-11.97L230.72-11.97Q230.72-21.38 235.90-27.46L235.90-27.46L235.90-27.46Q241.41-33.92 250.94-33.92L250.94-33.92L250.94-33.92Q257.86-33.92 261.38-30.72L261.38-30.72L261.38-30.72Q264.90-27.52 264.90-20.80L264.90-20.80L264.90-20.80Q264.90-10.56 259.39-4.61L259.39-4.61L259.39-4.61Q254.02 1.28 244.80 1.28ZM246.46-26.56L246.46-26.56L246.46-26.56Q245.70-24.83 245.09-22.24L245.09-22.24L245.09-22.24Q244.48-19.65 243.71-15.55L243.71-15.55L243.71-15.55Q242.94-11.46 242.94-6.40L242.94-6.40L242.94-6.40Q242.94-4.74 243.49-3.65L243.49-3.65L243.49-3.65Q244.03-2.56 245.50-2.56L245.50-2.56L245.50-2.56Q246.98-2.56 247.90-3.26L247.90-3.26L247.90-3.26Q248.83-3.97 249.54-5.63L249.54-5.63L249.54-5.63Q250.82-8.58 251.84-14.05L251.84-14.05L251.84-14.05Q252.86-19.52 252.96-21.89L252.96-21.89L252.96-21.89Q253.06-24.26 253.06-26.02L253.06-26.02L253.06-26.02Q253.06-27.78 252.54-28.93L252.54-28.93L252.54-28.93Q252.03-30.08 250.59-30.08L250.59-30.08L250.59-30.08Q249.15-30.08 248.19-29.18L248.19-29.18L248.19-29.18Q247.23-28.29 246.46-26.56ZM288.70-17.98L288.70-17.98L288.70-17.98Q291.01-22.08 291.01-26.24L291.01-26.24L291.01-26.24Q291.01-28.99 289.02-28.99L289.02-28.99L289.02-28.99Q287.49-28.99 285.89-26.37L285.89-26.37L285.89-26.37Q284.22-23.74 283.71-20.35L283.71-20.35L280.38 0L267.14 1.28L273.66-32.64L284.22-33.92L283.07-27.46L283.07-27.46Q286.21-33.92 293.25-33.92L293.25-33.92L293.25-33.92Q296.96-33.92 298.98-32L298.98-32L298.98-32Q300.99-30.08 300.99-26.14L300.99-26.14L300.99-26.14Q300.99-22.21 298.40-19.71L298.40-19.71L298.40-19.71Q295.81-17.22 291.39-17.22L291.39-17.22L291.39-17.22Q289.47-17.22 288.70-17.98ZM329.09 1.28L329.09 1.28L329.09 1.28Q321.34 1.28 321.34-4.74L321.34-4.74L321.34-4.74Q321.41-6.40 321.92-9.22L321.92-9.22L323.07-15.10L323.07-15.10Q324.80-23.42 324.80-25.28L324.80-25.28L324.80-25.28Q324.80-28.99 322.62-28.99L322.62-28.99L322.62-28.99Q318.98-28.99 317.06-19.46L317.06-19.46L313.28 0L300.42 1.28L307.07-32.70L317.57-33.92L316.54-27.65L316.54-27.65Q319.55-33.92 328.77-33.92L328.77-33.92L328.77-33.92Q333.25-33.92 335.14-32.03L335.14-32.03L335.14-32.03Q337.02-30.14 337.02-25.92L337.02-25.92L337.02-25.92Q337.02-21.95 334.98-12.67L334.98-12.67L334.98-12.67Q334.02-8.51 334.02-6.94L334.02-6.94L334.02-6.94Q334.02-5.38 334.88-4.48L334.88-4.48L334.88-4.48Q335.74-3.58 337.02-3.46L337.02-3.46L337.02-3.46Q336.38-1.28 334.18 0L334.18 0L334.18 0Q331.97 1.28 329.09 1.28ZM357.50-3.52L357.50-3.52L357.50-3.52Q355.52 1.28 349.18 1.28L349.18 1.28L349.18 1.28Q345.92 1.28 343.87-0.96L343.87-0.96L343.87-0.96Q342.14-2.94 342.14-4.93L342.14-4.93L342.14-4.93Q342.14-10.11 344.51-20.22L344.51-20.22L346.88-32.64L359.87-33.92L355.97-13.70L355.97-13.70Q354.88-8.96 354.88-7.30L354.88-7.30L354.88-7.30Q354.88-3.65 357.50-3.52ZM348.03-41.54L348.03-41.54L348.03-41.54Q348.03-44.03 350.11-45.38L350.11-45.38L350.11-45.38Q352.19-46.72 355.20-46.72L355.20-46.72L355.20-46.72Q358.21-46.72 360.03-45.38L360.03-45.38L360.03-45.38Q361.86-44.03 361.86-41.54L361.86-41.54L361.86-41.54Q361.86-39.04 359.84-37.76L359.84-37.76L359.84-37.76Q357.82-36.48 354.82-36.48L354.82-36.48L354.82-36.48Q351.81-36.48 349.92-37.76L349.92-37.76L349.92-37.76Q348.03-39.04 348.03-41.54ZM390.02 1.28L390.02 1.28L390.02 1.28Q382.27 1.28 382.27-4.74L382.27-4.74L382.27-4.74Q382.34-6.40 382.85-9.22L382.85-9.22L384-15.10L384-15.10Q385.73-23.42 385.73-25.28L385.73-25.28L385.73-25.28Q385.73-28.99 383.55-28.99L383.55-28.99L383.55-28.99Q379.90-28.99 377.98-19.46L377.98-19.46L374.21 0L361.34 1.28L368-32.70L378.50-33.92L377.47-27.65L377.47-27.65Q380.48-33.92 389.70-33.92L389.70-33.92L389.70-33.92Q394.18-33.92 396.06-32.03L396.06-32.03L396.06-32.03Q397.95-30.14 397.95-25.92L397.95-25.92L397.95-25.92Q397.95-21.95 395.90-12.67L395.90-12.67L395.90-12.67Q394.94-8.51 394.94-6.94L394.94-6.94L394.94-6.94Q394.94-5.38 395.81-4.48L395.81-4.48L395.81-4.48Q396.67-3.58 397.95-3.46L397.95-3.46L397.95-3.46Q397.31-1.28 395.10 0L395.10 0L395.10 0Q392.90 1.28 390.02 1.28ZM407.62-26.75L407.62-26.75L407.62-26.75Q409.79-29.82 413.09-31.87L413.09-31.87L413.09-31.87Q416.38-33.92 420.42-33.92L420.42-33.92L420.42-33.92Q424.45-33.92 426.37-32.64L426.37-32.64L438.91-33.92L434.56-9.34L434.56-9.34Q432.32 3.20 427.58 8.13L427.58 8.13L427.58 8.13Q423.04 12.80 414.21 12.80L414.21 12.80L414.21 12.80Q407.49 12.80 403.65 10.69L403.65 10.69L403.65 10.69Q399.81 8.58 399.81 5.06L399.81 5.06L399.81 5.06Q399.81 2.43 401.79 0.93L401.79 0.93L401.79 0.93Q403.78-0.58 406.85-0.58L406.85-0.58L406.85-0.58Q409.54-0.58 411.58 0.64L411.58 0.64L411.58 0.64Q412.80 1.28 413.38 2.18L413.38 2.18L413.38 2.18Q411.90 3.46 411.90 5.57L411.90 5.57L411.90 5.57Q411.90 8.32 414.46 8.32L414.46 8.32L414.46 8.32Q418.75 8.32 421.18-1.79L421.18-1.79L421.18-1.79Q421.89-4.54 422.46-7.30L422.46-7.30L422.46-7.30Q419.58-3.78 413.06-3.78L413.06-3.78L413.06-3.78Q408.51-3.78 405.89-5.95L405.89-5.95L405.89-5.95Q403.26-8.13 403.26-13.25L403.26-13.25L403.26-13.25Q403.26-16.45 404.35-20.06L404.35-20.06L404.35-20.06Q405.44-23.68 407.62-26.75ZM415.94-13.06L415.94-13.06L415.94-13.06Q415.94-8.70 418.18-8.70L418.18-8.70L418.18-8.70Q419.71-8.70 421.18-10.37L421.18-10.37L421.18-10.37Q422.34-11.71 422.78-13.70L422.78-13.70L426.05-30.14L426.05-30.14Q425.73-30.21 425.41-30.34L425.41-30.34L425.41-30.34Q424.77-30.59 423.94-30.59L423.94-30.59L423.94-30.59Q420.03-30.59 417.73-24.19L417.73-24.19L417.73-24.19Q415.94-19.20 415.94-13.06ZM439.68-3.78L439.68-3.78L439.68-3.78Q439.68-6.21 441.50-7.52L441.50-7.52L441.50-7.52Q443.33-8.83 446.02-8.83L446.02-8.83L446.02-8.83Q448.70-8.83 450.40-7.52L450.40-7.52L450.40-7.52Q452.10-6.21 452.10-3.78L452.10-3.78L452.10-3.78Q452.10-1.34 450.21 0L450.21 0L450.21 0Q448.32 1.34 445.63 1.34L445.63 1.34L445.63 1.34Q442.94 1.34 441.31 0L441.31 0L441.31 0Q439.68-1.34 439.68-3.78ZM443.14-15.81L443.14-15.81L443.14-15.81Q443.14-16.26 443.26-16.90L443.26-16.90L448.26-42.62L448.26-42.62Q450.62-43.52 453.44-43.52L453.44-43.52L453.44-43.52Q456.26-43.52 457.73-41.73L457.73-41.73L457.73-41.73Q459.20-39.94 459.20-37.28L459.20-37.28L459.20-37.28Q459.20-34.62 458.18-31.65L458.18-31.65L458.18-31.65Q457.15-28.67 455.90-25.66L455.90-25.66L455.90-25.66Q454.66-22.66 453.60-19.55L453.60-19.55L453.60-19.55Q452.54-16.45 452.48-13.18L452.48-13.18L452.48-13.18Q451.01-11.52 448.45-11.52L448.45-11.52L448.45-11.52Q445.89-11.52 444.51-12.70L444.51-12.70L444.51-12.70Q443.14-13.89 443.14-15.81Z" fill="url(#editing-outline-gradient)"></path></g></g><style>text {
  font-size: 64px;
  font-family: Arial Black;
  dominant-baseline: central;
  text-anchor: middle;
}</style></svg>