<?xml version="1.0" encoding="utf-8"?>
<!-- Designed by Vexels.com - 2020 All Rights Reserved - https://vexels.com/terms-and-conditions/  -->
<svg version="1.1" id="Layer_1" xmlns="http://www.w3.org/2000/svg" xmlns:xlink="http://www.w3.org/1999/xlink" x="0px" y="0px"
	 viewBox="0 0 1200 1200" enable-background="new 0 0 1200 1200" xml:space="preserve">
<g>
	<g>
		<path fill="#292929" d="M600,521.16c-7.166,0-14.332-2.234-20.309-6.711L439.319,409.336
			c-16.357-12.249-26.122-31.631-26.122-51.85v-23.383c0-14.127,11.61-25.621,25.867-25.621h321.879
			c14.258,0,25.859,11.495,25.859,25.621v23.387c0,20.223-9.765,39.605-26.113,51.845L620.317,514.445
			C614.34,518.921,607.174,521.16,600,521.16z M440.811,336.087v21.399c0,11.569,5.624,22.69,15.053,29.754l140.373,105.109
			c2.222,1.66,5.321,1.656,7.535-0.004L744.144,387.24c9.42-7.055,15.045-18.177,15.045-29.75v-21.403H440.811z"/>
	</g>
	<g>
		<path fill="#292929" d="M889.125,1049.921H310.875c-7.625,0-13.807-6.178-13.807-13.803V858.912
			c0-30.885,14.93-60.508,39.937-79.23L540.706,609.58l-0.312-19.378L336.431,419.859c-24.433-18.275-39.363-47.894-39.363-78.779
			V163.874c0-7.625,6.182-13.803,13.807-13.803h578.249c7.625,0,13.807,6.178,13.807,13.803V341.08
			c0,30.893-14.93,60.512-39.937,79.234L658.023,591.145l0.115,17.546l205.431,171.442c24.433,18.267,39.363,47.885,39.363,78.779
			v177.206C902.931,1043.743,896.75,1049.921,889.125,1049.921z M324.682,1022.315h550.635V858.912
			c0-22.239-10.79-43.597-28.868-57.13L635.526,625.781c-3.116-2.603-4.927-6.444-4.96-10.507l-0.197-30.471
			c-0.025-4.128,1.796-8.051,4.969-10.695l210.547-175.447c18.644-13.983,29.434-35.341,29.434-57.581V177.677H324.682V341.08
			c0,22.235,10.79,43.593,28.868,57.138l209.391,174.849c3.083,2.57,4.895,6.358,4.952,10.372l0.517,32.291
			c0.074,4.169-1.755,8.146-4.952,10.818L354.124,801.327c-18.652,13.991-29.442,35.349-29.442,57.585V1022.315z"/>
	</g>
	<g>
		<path fill="#292929" d="M817.18,981.776H382.829c-7.625,0-13.807-6.178-13.807-13.803v-92.68c0-7.625,6.182-13.803,13.807-13.803
			H817.18c7.625,0,13.807,6.178,13.807,13.803v92.68C830.986,975.598,824.805,981.776,817.18,981.776z M396.635,954.17h406.737
			v-65.074H396.635V954.17z"/>
	</g>
	<g>
		<path fill="#292929" d="M890.289,177.677H309.719c-29.663,0-53.793-24.125-53.793-53.785V79.135
			c0-16.066,13.077-29.135,29.139-29.135h629.869c16.062,0,29.139,13.069,29.139,29.135v44.758
			C944.073,153.552,919.944,177.677,890.289,177.677z M285.065,77.606c-0.844,0-1.525,0.685-1.525,1.529v44.758
			c0,14.434,11.741,26.179,26.179,26.179h580.569c14.43,0,26.171-11.745,26.171-26.179V79.135c0-0.844-0.681-1.529-1.525-1.529
			H285.065z"/>
	</g>
	<g>
		<path fill="#292929" d="M914.935,1150H285.065c-16.062,0-29.139-13.077-29.139-29.139v-50.156c0-26.683,21.711-48.39,48.398-48.39
			h591.359c26.679,0,48.39,21.706,48.39,48.39v50.156C944.073,1136.923,930.996,1150,914.935,1150z M304.325,1049.921
			c-11.462,0-20.784,9.326-20.784,20.784v50.156c0,0.844,0.681,1.529,1.525,1.529h629.869c0.844,0,1.525-0.685,1.525-1.529v-50.156
			c0-11.458-9.322-20.784-20.776-20.784H304.325z"/>
	</g>
</g>
</svg>
